<svg width="128" height="128" xmlns="http://www.w3.org/2000/svg">
  <defs>
    <linearGradient id="mamecomiGrad" x1="0%" y1="0%" x2="100%" y2="100%">
      <stop offset="0%" style="stop-color:#D9F0C8;stop-opacity:1" />
      <stop offset="100%" style="stop-color:#33A852;stop-opacity:1" />
    </linearGradient>
  </defs>
  
  <!-- 背景 -->
  <rect width="128" height="128" rx="24" fill="url(#mamecomiGrad)"/>
  
  <!-- モダンなカメラデザイン -->
  <g transform="translate(64, 64)">
    <!-- カメラボディ -->
    <rect x="-36" y="-24" width="72" height="48" rx="8" fill="white" opacity="0.95"/>
    
    <!-- レンズ外枠 -->
    <circle cx="0" cy="0" r="20" fill="#33A852"/>
    <circle cx="0" cy="0" r="16" fill="white" opacity="0.9"/>
    <circle cx="0" cy="0" r="12" fill="#33A852"/>
    <circle cx="0" cy="0" r="6" fill="white"/>
    
    <!-- レンズハイライト -->
    <ellipse cx="-4" cy="-4" rx="3" ry="4" fill="white" opacity="0.6"/>
    
    <!-- シャッターボタン -->
    <circle cx="22" cy="-18" r="4" fill="#FF6B9D" opacity="0.9"/>
    
    <!-- フラッシュ -->
    <rect x="-28" y="-20" width="8" height="6" rx="2" fill="#FFD700" opacity="0.8"/>
  </g>
  
  <!-- スキャンフレーム -->
  <path d="M 28 36 L 28 28 L 36 28" stroke="#4CAF50" stroke-width="4" fill="none" stroke-linecap="round"/>
  <path d="M 100 36 L 100 28 L 92 28" stroke="#4CAF50" stroke-width="4" fill="none" stroke-linecap="round"/>
  <path d="M 28 92 L 28 100 L 36 100" stroke="#4CAF50" stroke-width="4" fill="none" stroke-linecap="round"/>
  <path d="M 100 92 L 100 100 L 92 100" stroke="#4CAF50" stroke-width="4" fill="none" stroke-linecap="round"/>
  
  <!-- スキャンライン（アニメーション） -->
  <!-- <line x1="32" y1="64" x2="96" y2="64" stroke="#4CAF50" stroke-width="2" opacity="0.8">
    <animate attributeName="y1" values="32;96;32" dur="2s" repeatCount="indefinite"/>
    <animate attributeName="y2" values="32;96;32" dur="2s" repeatCount="indefinite"/>
  </line> -->
</svg>
